{"title":"Thelma &amp; Louise.1991.SWESUB.DVDRip.XviD-Zen_Bud","uid":5727597,"size":846076822,"categoryP":"video","categoryS":"movies","magnet":"?xt=urn:btih:ac78ff4413479e941100d1233ce747796b3db139&amp;dn=Thelma+%26+Louise.1991.SWESUB.DVDRip.XviD-Zen_Bud&amp;tr=udp%3A%2F%2Ftracker.openbittorrent.com%3A80&amp;tr=udp%3A%2F%2Fopen.demonii.com%3A1337&amp;tr=udp%3A%2F%2Ftracker.coppersurfer.tk%3A6969&amp;tr=udp%3A%2F%2Fexodus.desync.com%3A6969","seeders":1,"leechers":0,"uploader":null,"files":1,"time":1280516882,"description":"General\nComplete name                    : Thelma &amp; Louise.1991.avi\nFormat                           : AVI\nFile size                        : 807 MiB\nDuration                         : 2h 4mn\nOverall bit rate                 : 909 Kbps\n\nVideo\n\nFormat                           : MPEG-4 Visual\nCodec ID/Hint                    : XviD\nDuration                         : 2h 4mn\nBit rate                         : 784 Kbps\nWidth                            : 704 pixels\nHeight                           : 484 pixels\nDisplay aspect ratio             : 2.2:1\nStream size                      : 696 MiB (86%)\nWriting library                  : XviD 1.1.2 (UTC 2006-11-01)\n\nAudio\n\nFormat                           : MPEG Audio\nCodec ID/Hint                    : MP3\nDuration                         : 2h 4mn\nBit rate                         : 112 Kbps\nChannel(s)                       : 2 channels\nSampling rate                    : 48.0 KHz\nStream size                      : 99.4 MiB (12%)","torrent":{"xt":"urn:btih:ac78ff4413479e941100d1233ce747796b3db139","amp;dn":"Thelma+%26+Louise.1991.SWESUB.DVDRip.XviD-Zen_Bud","amp;tr":["udp%3A%2F%2Ftracker.openbittorrent.com%3A80","udp%3A%2F%2Fopen.demonii.com%3A1337","udp%3A%2F%2Ftracker.coppersurfer.tk%3A6969","udp%3A%2F%2Fexodus.desync.com%3A6969"],"infoHash":"ac78ff4413479e941100d1233ce747796b3db139","infoHashBuffer":{"type":"Buffer","data":[172,120,255,68,19,71,158,148,17,0,209,35,60,231,71,121,107,61,177,57]},"announce":[],"urlList":[]}}